# xmcd
# Copyright (C) 1995-1998 Ti Kan
#
# Track frame offsets:
#       150
#       2617
#       108605
#       213395
#
# Disc length: 4356 seconds
#
# Revision: 0
# Processed by: cddbd v1.5.2PL0 Copyright (c) Steve Scherf et al.
# Submitted via: CD-Import v1.0
#
DISCID=2d110204
DTITLE=Herr Der Ringe - 
DYEAR=1900
DGENRE=
TTITLE0=Anmodi Hdr 10
TTITLE1=Hdr10.1
TTITLE2=Hdr10.2
TTITLE3=Hdr10.3
EXTD=
EXTT0=
EXTT1=
EXTT2=
EXTT3=
PLAYORDER=
